<svg width="122" height="53" viewBox="0 0 122 53" fill="none" xmlns="http://www.w3.org/2000/svg">
<path d="M56.2526 5.13086C58.792 4.39788 58.0191 1.20997e-05 55.0381 0.789374C52.4988 1.52235 53.3268 5.92022 56.2526 5.13086Z" fill="#366D99"/>
<path d="M81.3703 11.3894C81.3151 10.9947 81.1495 10.1489 80.8182 9.47235C80.5974 8.9649 80.487 8.96491 80.1558 8.45746C79.9902 8.00639 80.3766 7.95001 80.7078 7.78086C81.7567 7.27342 83.0816 6.59682 83.8544 6.14576L86.449 4.22874C86.725 4.05959 87.5531 3.15746 87.9395 2.7064C88.602 2.0298 89.154 1.46597 89.3748 0.563843C89.2644 0.563843 89.0988 0.676609 88.9884 0.789375C88.4915 1.40959 87.9947 1.80427 87.4427 2.25533C85.0137 4.28512 82.4743 5.30001 79.935 5.86384C74.4698 7.04788 69.1151 6.70959 65.306 13.1936C63.9259 10.9947 63.4843 10.3181 61.221 8.85214C56.8599 5.97661 53.382 6.93512 48.5793 5.18725C45.1015 3.94682 44.1078 2.81916 41.3477 0.732992C42.1757 3.27023 46.2056 6.14576 48.6897 7.21703C49.7386 7.6681 50.5667 7.61171 50.2906 8.57022C48.1929 11.6149 49.6834 15.3926 51.3395 17.817C53.6029 21.0872 56.5287 23.6809 58.4608 26.1053C62.601 31.3489 63.9811 34.0553 65.2508 41.216C65.8581 37.5511 66.3549 34.9575 67.9558 32.0255C68.7286 30.6723 69.3911 29.5447 70.2191 28.417C72.7033 24.9213 76.0155 22.1585 78.4445 18.7192C79.2725 17.6479 81.7015 13.983 81.3703 11.3894ZM75.7947 15.7872C75.6843 16.1819 75.4635 16.5766 75.2979 17.0277C74.0282 19.5649 71.2128 22.4404 69.4463 24.7521C65.9685 29.5447 66.2997 31.5745 65.1956 34.2245C64.478 29.4319 62.3802 26.1617 60.0065 23.3989C58.6816 21.8766 57.3567 20.2979 56.087 18.6628C54.2653 16.3511 53.1612 11.2766 57.4119 10.9383C58.2952 10.8819 59.5096 10.9947 60.8897 11.7841C62.5458 12.6862 63.4843 13.6447 64.3124 15.167C64.6436 15.7309 64.8644 16.1819 65.1956 16.7458C65.3612 17.0277 65.4164 16.9713 65.582 16.7458C65.8029 16.2947 66.0237 16.0692 66.2997 15.5617C67.459 13.5319 69.1151 11.1075 72.7585 11.0511C75.4083 10.9383 76.7884 12.8553 75.7947 15.7872Z" fill="#366D99"/>
<path d="M76.9544 5.18722C78.9969 4.96169 80.8186 4.56701 82.3091 3.6085C81.4811 3.6085 80.9842 3.66488 80.653 3.6085C79.3833 3.49573 79.1625 3.15744 77.4512 1.97339C76.844 1.52233 76.0159 0.732969 74.8566 0.845735C73.7526 0.902118 73.0901 1.74786 72.9245 2.64999C72.3725 5.35637 74.967 5.41276 76.9544 5.18722Z" fill="#366D99"/>
<path d="M31.1353 40.8213C28.0991 40.8213 27.8783 40.7086 27.8783 37.9458V33.266H30.4728C31.7425 33.266 32.1841 33.3224 32.5154 33.6607C32.7362 33.8862 32.8466 34.5064 33.0122 35.4086H33.6194V30.2213H33.0122C32.7362 32.1383 32.681 32.3075 30.4728 32.3075H27.8783V26.4437C27.8783 25.5979 27.9335 25.5415 28.8719 25.5415H30.6384C33.2882 25.5415 33.8955 25.8798 34.3923 28.5298L35.0547 28.4734C34.9443 27.0075 34.7787 24.9213 34.7787 24.6394H23.3516V25.2596C25.4493 25.4288 25.6701 25.5979 25.6701 28.4734V37.9458C25.6701 40.8213 25.4493 40.9905 23.3516 41.1596V41.7234H35.3307C35.5516 41.0469 36.1036 38.3405 36.214 37.6075L35.6068 37.5511C34.6131 40.4266 34.1715 40.8213 31.1353 40.8213Z" fill="#366D99"/>
<path d="M44.9363 24.6394H37.5942V25.2596C39.692 25.4288 39.9128 25.5979 39.9128 28.4734V37.9458C39.9128 40.8213 39.692 40.9905 37.5942 41.1596V41.7234H43.3906C49.463 41.7234 54.3209 38.9043 54.3209 32.4203C54.3761 28.9245 52.4992 24.6394 44.9363 24.6394ZM44.3843 40.8213C42.2313 40.8213 42.1209 40.2011 42.1209 38.3405V26.3309C42.1209 25.4851 42.1761 25.4288 44.2187 25.4288C49.7942 25.4288 51.892 27.966 51.892 33.0969C51.8368 37.0437 49.7942 40.8213 44.3843 40.8213Z" fill="#366D99"/>
<path d="M100.692 33.4915C102.79 32.6458 104.115 31.0671 104.115 28.9245C104.115 25.0341 100.471 24.6958 98.3183 24.6958H91.749V25.316C93.8468 25.4852 94.0676 25.6543 94.0676 28.5298V38.0022C94.0676 40.8777 93.8468 41.0469 91.749 41.216V41.7235H98.5391V41.1033C96.4413 40.9341 96.2205 40.765 96.2205 37.8894V34.1681H97.6006C98.3735 34.1681 98.7599 34.4501 99.2015 35.0703C101.575 38.7352 102.017 41.8926 106.654 41.8926H106.985L107.04 41.3852C105.44 41.216 103.563 38.2841 100.692 33.4915ZM97.8766 33.4352H96.2205V26.2745C96.2205 25.4852 96.2757 25.4288 97.8766 25.4288C99.8088 25.4288 101.741 26.5564 101.741 29.2628C101.741 31.8001 100.361 33.4352 97.8766 33.4352Z" fill="#366D99"/>
<path d="M111.125 41.1032V41.7234H117.916V41.1032C115.818 40.934 115.597 40.7649 115.597 37.8894V25.4851H117.308C119.572 25.4851 120.565 25.6543 121.062 28.5862L121.725 28.5298C121.559 27.0074 121.449 24.9777 121.449 23.9628H121.117C120.731 24.4702 120.565 24.6394 119.903 24.6394H109.304C108.586 24.6394 108.365 24.583 107.979 23.9628H107.648C107.648 25.1468 107.427 27.0074 107.316 28.5862H107.979C108.697 26.0489 108.917 25.4851 112.23 25.4851H113.444V37.8894C113.444 40.7649 113.223 40.934 111.125 41.1032Z" fill="#366D99"/>
<path d="M19.4872 38.3968C19.2664 30.5596 19.156 27.9096 19.156 27.7405C19.156 25.5415 19.4872 25.4288 21.5298 25.316V24.6958H17.2791L11.1515 38.2277L4.96868 24.6394H0.717996V25.2596C2.76053 25.4288 3.20216 25.5979 3.20216 27.7405C3.20216 27.9096 2.81573 39.0734 2.3189 40.1447C2.04288 40.7086 1.71166 40.9905 0.276367 41.1032V41.7234H6.29356V41.1032C3.91981 40.9905 3.8094 40.3139 3.8094 38.5096C3.8094 37.5511 3.8094 36.2543 4.14062 27.6841H4.19582L10.1026 41.3851H10.7651L17.0583 27.2894H17.1135C17.2239 29.8266 17.2791 36.649 17.2791 38.6788C17.2791 40.0883 17.1687 40.8213 16.1198 40.9341L15.0157 41.0469V41.7234H21.8058V41.1032C19.6528 40.9341 19.5976 40.7086 19.4872 38.3968Z" fill="#366D99"/>
<path d="M84.9587 40.9905L84.1307 41.1033V41.7235H90.3135V41.1033C88.7126 40.9905 88.3814 40.8213 87.5533 38.566L82.4194 24.2448L81.8674 24.5267L76.5678 38.4533C75.6845 40.765 75.4637 40.9341 73.8076 41.1596V41.7235H79.328V41.1033L78.5551 41.0469C77.7823 40.9905 77.3959 40.8213 77.3959 40.2575C77.3959 39.9756 77.4511 39.5809 77.6719 39.0735L78.9416 35.2394H84.1859L85.842 39.8065C85.8972 40.0884 85.9524 40.2575 85.9524 40.4267C85.8972 40.765 85.6212 40.8777 84.9587 40.9905ZM79.2176 34.2245L81.4809 27.7405H81.5361L83.7995 34.2245H79.2176Z" fill="#366D99"/>
<path d="M3.75414 47.9255C3.69894 47.9255 3.64373 47.9255 3.58853 47.9255C3.47812 47.9255 3.42292 47.9255 3.31251 47.9819L2.26364 49.9553C2.15323 50.1245 2.09803 50.2936 2.09803 50.35C2.04283 50.2372 1.98762 50.0117 1.82201 49.7298L0.883551 47.9819L0.607533 47.9255C0.497126 47.9255 0.441922 47.9255 0.386719 47.9819V51.9287H0.441922C0.497126 51.9287 0.497126 51.9287 0.55233 51.9287C0.662737 51.9287 0.71794 51.9287 0.71794 51.8723V49.5042C0.71794 48.9404 0.717941 48.5457 0.662737 48.433C0.717941 48.6021 0.828348 48.884 1.04916 49.2787L1.93242 50.9138H2.04283C2.09803 50.9138 2.15323 50.9138 2.15323 50.9138L3.03649 49.2787C3.25731 48.884 3.36771 48.6021 3.42292 48.4894C3.42292 48.6585 3.42292 48.9968 3.42292 49.617V51.8723H3.47812C3.53333 51.8723 3.53333 51.8723 3.58853 51.8723C3.69894 51.8723 3.75414 51.8723 3.80934 51.8159V47.8691H3.75414C3.80934 47.9255 3.80934 47.9255 3.75414 47.9255Z" fill="#366D99"/>
<path d="M7.45294 47.9255C7.39774 47.9255 7.39774 47.9255 7.34253 47.9255C7.23213 47.9255 7.17692 47.9255 7.12172 47.9819V49.7298H5.3V47.9819H5.2448C5.18959 47.9819 5.18959 47.9819 5.13439 47.9819C5.02398 47.9819 4.96878 47.9819 4.91357 48.0383V51.9851H4.96878C5.02398 51.9851 5.02398 51.9851 5.07919 51.9851C5.18959 51.9851 5.2448 51.9851 5.3 51.9287V50.0681H7.12172V51.8723H7.17692C7.23213 51.8723 7.23213 51.8723 7.28733 51.8723C7.39774 51.8723 7.45294 51.8723 7.50814 51.8159V47.8691C7.50814 47.9255 7.50814 47.9255 7.45294 47.9255Z" fill="#366D99"/>
<path d="M9.93679 47.8691C9.43995 47.8691 9.10873 48.0383 8.83271 48.3766C8.5567 48.7149 8.44629 49.2223 8.44629 49.8989C8.44629 51.2521 8.94312 51.9287 9.93679 51.9287C10.9305 51.9287 11.4273 51.2521 11.4273 49.8989C11.4273 49.2223 11.3169 48.6585 11.0409 48.3202C10.7648 48.0383 10.3784 47.8691 9.93679 47.8691ZM10.7096 51.2521C10.544 51.534 10.268 51.6468 9.93679 51.6468C9.60557 51.6468 9.32955 51.534 9.16394 51.2521C8.99833 50.9702 8.88792 50.5755 8.88792 49.9553C8.88792 49.3351 8.99833 48.884 9.16394 48.6585C9.32955 48.3766 9.60557 48.2638 9.93679 48.2638C10.268 48.2638 10.544 48.3766 10.7096 48.6585C10.8752 48.9404 10.9857 49.3351 10.9857 49.9553C10.9857 50.5755 10.8752 50.9702 10.7096 51.2521Z" fill="#366D99"/>
<path d="M12.2554 47.9255V51.8723H12.3106C12.3658 51.8723 12.3658 51.8723 12.421 51.8723C12.5314 51.8723 12.5866 51.8723 12.6418 51.8159V48.2074H14.2979L14.3531 48.0383C14.3531 47.9819 14.3531 47.9255 14.2979 47.8691H12.2554V47.9255Z" fill="#366D99"/>
<path d="M16.1199 47.8691C15.6231 47.8691 15.2918 48.0383 15.0158 48.3766C14.7398 48.7149 14.6294 49.2223 14.6294 49.8989C14.6294 51.2521 15.1262 51.9287 16.1199 51.9287C17.1136 51.9287 17.6104 51.2521 17.6104 49.8989C17.6104 49.2223 17.5 48.6585 17.224 48.3202C16.9479 48.0383 16.6167 47.8691 16.1199 47.8691ZM16.8927 51.2521C16.7271 51.534 16.4511 51.6468 16.1199 51.6468C15.7887 51.6468 15.5127 51.534 15.347 51.2521C15.1814 50.9702 15.071 50.5755 15.071 49.9553C15.071 49.3351 15.1814 48.884 15.347 48.6585C15.5127 48.3766 15.7887 48.2638 16.1199 48.2638C16.4511 48.2638 16.7271 48.3766 16.8927 48.6585C17.0584 48.9404 17.1688 49.3351 17.1688 49.9553C17.1688 50.5755 17.1136 50.9702 16.8927 51.2521Z" fill="#366D99"/>
<path d="M18.4937 51.8723C18.5489 51.8723 18.5489 51.8723 18.6041 51.8723C18.6593 51.8723 18.6593 51.8723 18.7145 51.8723C18.8249 51.8723 18.8801 51.8723 18.9353 51.8159V48.2074H20.7018V51.8723H20.757C20.8122 51.8723 20.8122 51.8723 20.8674 51.8723C20.9778 51.8723 21.033 51.8723 21.0882 51.8159V47.8691H18.4937V51.8723Z" fill="#366D99"/>
<path d="M23.4621 47.9255H22.082V51.8723H22.1372C22.1924 51.8723 22.1924 51.8723 22.2476 51.8723C22.358 51.8723 22.4133 51.8723 22.4685 51.816V50.2372H23.4621C23.7933 50.2372 24.0694 50.1245 24.2902 49.8989C24.511 49.6734 24.6214 49.3915 24.6214 49.0532C24.6214 48.7149 24.511 48.433 24.2902 48.2075C24.0694 48.0383 23.7933 47.9255 23.4621 47.9255ZM23.959 49.7298C23.8485 49.8989 23.6277 49.9553 23.4069 49.9553H22.4685V48.2638H23.4069C23.6277 48.2638 23.8485 48.3202 23.959 48.4894C24.0694 48.6585 24.1246 48.8277 24.1246 49.1096C24.1798 49.3915 24.1246 49.617 23.959 49.7298Z" fill="#366D99"/>
<path d="M26.719 47.8691C26.2222 47.8691 25.891 48.0383 25.6149 48.3766C25.3389 48.7149 25.2285 49.2223 25.2285 49.8989C25.2285 51.2521 25.7253 51.9287 26.719 51.9287C27.7127 51.9287 28.2095 51.2521 28.2095 49.8989C28.2095 49.2223 28.0991 48.6585 27.8231 48.3202C27.5471 48.0383 27.1606 47.8691 26.719 47.8691ZM27.4919 51.2521C27.3263 51.534 27.0502 51.6468 26.719 51.6468C26.3878 51.6468 26.1118 51.534 25.9462 51.2521C25.7806 50.9702 25.6701 50.5755 25.6701 49.9553C25.6701 49.3351 25.7806 48.884 25.9462 48.6585C26.1118 48.3766 26.3878 48.2638 26.719 48.2638C27.0502 48.2638 27.3263 48.3766 27.4919 48.6585C27.6575 48.9404 27.7679 49.3351 27.7679 49.9553C27.7679 50.5755 27.6575 50.9702 27.4919 51.2521Z" fill="#366D99"/>
<path d="M30.9141 48.3202V47.9255H30.8589C30.8037 47.9255 30.8037 47.9255 30.7485 47.9255C30.6381 47.9255 30.5829 47.9255 30.5277 47.9819V48.3766C29.9757 48.3766 29.5893 48.4894 29.258 48.7149C28.982 48.9404 28.8164 49.3351 28.8164 49.8989C28.8164 50.1809 28.8716 50.4064 28.9268 50.6319C29.0372 50.8575 29.1476 50.9702 29.3132 51.083C29.4788 51.1957 29.6445 51.2521 29.8653 51.3085C30.0861 51.3649 30.3069 51.3649 30.5277 51.3649V51.8723H30.5829C30.6381 51.8723 30.6381 51.8723 30.6933 51.8723C30.8037 51.8723 30.8589 51.8723 30.9141 51.816V51.3085C32.0734 51.3085 32.6255 50.8011 32.6255 49.7862C32.6255 49.2223 32.4598 48.8277 32.1838 48.6021C31.8526 48.433 31.411 48.3202 30.9141 48.3202ZM30.4725 51.083C30.0861 51.083 29.7549 50.9702 29.5341 50.8011C29.3132 50.6319 29.2028 50.2936 29.2028 49.8426C29.2028 49.3915 29.3132 49.0532 29.5341 48.884C29.7549 48.7149 30.0861 48.6021 30.4725 48.6021V51.083ZM31.8526 50.8011C31.6318 50.9702 31.3006 51.083 30.9141 51.083V48.6585C31.3006 48.6585 31.6318 48.7713 31.8526 48.9404C32.0734 49.1096 32.1838 49.4479 32.1838 49.8989C32.1838 50.35 32.0734 50.6319 31.8526 50.8011Z" fill="#366D99"/>
<path d="M35.993 47.9255C35.9378 47.9255 35.8826 47.9255 35.8826 47.9255C35.7722 47.9255 35.717 47.9255 35.6618 47.9819L34.2265 50.4628C34.0057 50.9138 33.8401 51.1957 33.7849 51.3649V51.2521C33.7849 51.1394 33.7849 51.0266 33.7849 50.8574C33.7849 50.6883 33.7849 50.4628 33.7849 50.2936V47.9819H33.7297C33.6745 47.9819 33.6745 47.9819 33.6193 47.9819C33.5088 47.9819 33.4536 47.9819 33.3984 48.0383V51.9851H33.4536C33.5088 51.9851 33.5088 51.9851 33.564 51.9851C33.6193 51.9851 33.6193 51.9851 33.6745 51.9851H33.7297H33.7849C33.7849 51.9851 33.7849 51.9851 33.8401 51.9851L35.2754 49.4479C35.4962 49.0532 35.6066 48.7713 35.6618 48.6021V48.7149C35.6618 48.7713 35.6618 48.884 35.6618 49.1096C35.6618 49.2787 35.6618 49.5042 35.6618 49.7298V51.8723H35.717C35.7722 51.8723 35.7722 51.8723 35.8274 51.8723C35.9378 51.8723 35.993 51.8723 36.0482 51.8159V47.8691C36.0482 47.9255 36.0482 47.9255 35.993 47.9255Z" fill="#366D99"/>
<path d="M37.539 49.7298C37.539 50.0681 37.4838 50.35 37.4286 50.5755C37.3734 50.8011 37.3182 51.0266 37.3182 51.1393C37.263 51.2521 37.2078 51.3649 37.1526 51.4213C37.0974 51.4776 37.0422 51.534 36.987 51.534C36.9318 51.534 36.8766 51.534 36.8766 51.5904H36.8214H36.7662H36.711C36.711 51.6468 36.6558 51.7032 36.6558 51.7596C36.6558 51.8159 36.6558 51.8723 36.711 51.9287C36.7662 51.9287 36.8214 51.9851 36.9318 51.9851C36.987 51.9851 37.0974 51.9851 37.1526 51.9287C37.2078 51.9287 37.3182 51.8723 37.3734 51.7596C37.4838 51.6468 37.539 51.534 37.5942 51.4213C37.6494 51.2521 37.7046 51.0266 37.7598 50.7447C37.815 50.4628 37.8702 50.1245 37.8702 49.7298L37.9807 48.2638H39.2503V51.8723C39.2503 51.8723 39.2503 51.8723 39.3055 51.8723H39.3607H39.4159C39.5264 51.8723 39.5816 51.8723 39.6368 51.8159V47.8691H37.6494L37.539 49.7298Z" fill="#366D99"/>
<path d="M42.176 49.617H41.1271V47.9819H41.0719C41.0167 47.9819 41.0167 47.9819 40.9615 47.9819C40.8511 47.9819 40.7959 47.9819 40.7407 48.0383V51.9851H42.176C42.5072 51.9851 42.7833 51.8724 43.0041 51.6468C43.2249 51.4213 43.3353 51.1394 43.3353 50.8011C43.3353 50.4628 43.2249 50.1809 43.0041 49.9553C42.7833 49.7298 42.5072 49.617 42.176 49.617ZM42.6728 51.3649C42.5624 51.5341 42.3416 51.5904 42.1208 51.5904H41.1271V50.0117H42.1208C42.3416 50.0117 42.5624 50.0681 42.6728 50.2373C42.7833 50.4064 42.8937 50.5755 42.8937 50.8011C42.8937 51.0266 42.8385 51.2521 42.6728 51.3649Z" fill="#366D99"/>
<path d="M46.6478 47.9255C46.5926 47.9255 46.5926 47.9255 46.5374 47.9255C46.427 47.9255 46.3718 47.9255 46.3165 47.9819V49.7298H44.4948V47.9819H44.4396C44.3844 47.9819 44.3844 47.9819 44.3292 47.9819C44.2188 47.9819 44.1636 47.9819 44.1084 48.0383V51.9851H44.1636C44.2188 51.9851 44.2188 51.9851 44.274 51.9851C44.3844 51.9851 44.4396 51.9851 44.4948 51.9287V50.0681H46.3165V51.8723H46.3718C46.427 51.8723 46.427 51.8723 46.4822 51.8723C46.5926 51.8723 46.6478 51.8723 46.703 51.8159V47.8691C46.703 47.9255 46.6478 47.9255 46.6478 47.9255Z" fill="#366D99"/>
<path d="M49.1869 47.9819H49.1317C49.0765 47.9819 49.0765 47.9819 49.0213 47.9819C48.9109 47.9819 48.8557 47.9819 48.8005 48.0383L47.3652 51.9851H47.4204C47.4756 51.9851 47.4756 51.9851 47.5308 51.9851C47.6412 51.9851 47.6965 51.9851 47.7517 51.9287L48.1381 50.8575H49.8494L50.2358 51.8724H50.291C50.3462 51.8724 50.3462 51.8724 50.4014 51.8724C50.5118 51.8724 50.567 51.8724 50.6222 51.816L49.1869 47.9819ZM48.2485 50.5192L48.8557 48.8277C48.9109 48.6585 48.9661 48.5458 48.9661 48.433L49.0765 48.8277L49.6838 50.5192H48.2485Z" fill="#366D99"/>
<path d="M51.4499 48.2638C51.2291 48.4894 51.1187 48.7713 51.1187 49.1096C51.1187 49.3915 51.1739 49.617 51.3395 49.8425C51.4499 50.0681 51.6707 50.1808 51.9467 50.2372L51.0635 51.9287C51.0635 51.9287 51.1187 51.9287 51.1739 51.9287C51.2291 51.9287 51.2291 51.9287 51.2843 51.9287C51.3947 51.9287 51.4499 51.9287 51.5051 51.8723L52.3884 50.2372H53.2716V51.8723H53.3268C53.382 51.8723 53.382 51.8723 53.4372 51.8723C53.5476 51.8723 53.6028 51.8723 53.658 51.8159V47.8691H52.278C51.9467 47.9255 51.6707 48.0383 51.4499 48.2638ZM53.2164 48.2638V49.8989H52.278C52.0571 49.8989 51.8915 49.8425 51.7259 49.6734C51.6155 49.5042 51.5051 49.3351 51.5051 49.0532C51.5051 48.7713 51.5603 48.6021 51.7259 48.433C51.8363 48.2638 52.0571 48.2074 52.278 48.2074H53.2164V48.2638Z" fill="#366D99"/>
<path d="M59.3444 47.9255C59.2892 47.9255 59.234 47.9255 59.1788 47.9255C59.0684 47.9255 59.0132 47.9255 58.9028 47.9819L57.8539 49.9553C57.7435 50.1245 57.6883 50.2936 57.6883 50.35C57.6331 50.2372 57.5779 50.0117 57.4123 49.7298L56.4739 47.9819L56.253 47.9255C56.1426 47.9255 56.0874 47.9255 56.0322 47.9819V51.9287H56.0874C56.1426 51.9287 56.1426 51.9287 56.1978 51.9287C56.3082 51.9287 56.3634 51.9287 56.3634 51.8723V49.5042C56.3634 48.9404 56.3634 48.5457 56.3082 48.433C56.3634 48.6021 56.4739 48.884 56.6947 49.2787L57.5779 50.9138H57.6883C57.7435 50.9138 57.7987 50.9138 57.7987 50.9138L58.682 49.2787C58.9028 48.884 59.0132 48.6021 59.0684 48.4894C59.0684 48.6585 59.0684 48.9968 59.0684 49.617V51.8723H59.1236C59.1788 51.8723 59.1788 51.8723 59.234 51.8723C59.3444 51.8723 59.3996 51.8723 59.4548 51.8159V47.8691H59.3996C59.4548 47.9255 59.3996 47.9255 59.3444 47.9255Z" fill="#366D99"/>
<path d="M60.945 51.5904V50.0681H62.4355C62.4355 50.0117 62.4907 49.9553 62.4907 49.8989C62.4907 49.8426 62.4907 49.7862 62.4355 49.7298H60.945V48.2638H62.7115C62.7115 48.2075 62.7667 48.1511 62.7667 48.0947C62.7667 48.0383 62.7667 47.9819 62.7115 47.9255H60.5586V51.9287H62.7667C62.7667 51.8723 62.8219 51.816 62.8219 51.7596C62.8219 51.7032 62.8219 51.6468 62.7667 51.5904H60.945Z" fill="#366D99"/>
<path d="M66.0791 47.9255H64.0366L63.871 49.8989C63.8158 50.7447 63.6502 51.3085 63.4294 51.5904H63.0981V52.7181C63.1533 52.7181 63.2085 52.7745 63.2638 52.7745C63.319 52.7745 63.3742 52.7745 63.4294 52.7181V51.9287H66.0791V52.7181C66.1343 52.7181 66.1895 52.7745 66.2448 52.7745C66.3 52.7745 66.3552 52.7745 66.4104 52.7181V51.5904H65.9687V47.9255H66.0791ZM65.6927 51.5904H63.9262C64.0918 51.2521 64.2574 50.6883 64.3126 49.9553L64.423 48.2638H65.6927V51.5904Z" fill="#366D99"/>
<path d="M69.888 47.9255C69.8328 47.9255 69.7776 47.9255 69.7776 47.9255C69.6672 47.9255 69.612 47.9255 69.5568 47.9819L68.1215 50.5191C67.9007 50.9702 67.7351 51.2521 67.6799 51.4213V51.3085C67.6799 51.1957 67.6799 51.083 67.6799 50.9138C67.6799 50.7447 67.6799 50.5191 67.6799 50.35V48.0383H67.6247C67.5695 48.0383 67.5695 48.0383 67.5143 48.0383C67.4039 48.0383 67.3487 48.0383 67.2935 48.0947V52.0415H67.3487C67.4039 52.0415 67.4039 52.0415 67.4591 52.0415C67.5143 52.0415 67.5143 52.0415 67.5695 52.0415H67.6247H67.6799C67.6799 52.0415 67.6799 52.0415 67.7351 52.0415L69.1704 49.5042C69.3912 49.1096 69.5016 48.8277 69.5568 48.6585V48.7713C69.5568 48.8276 69.5568 48.9404 69.5568 49.1659C69.5568 49.3351 69.5568 49.5606 69.5568 49.7862V51.8723H69.612C69.6672 51.8723 69.6672 51.8723 69.7224 51.8723C69.8328 51.8723 69.888 51.8723 69.9432 51.8159V47.8691C69.9432 47.9255 69.888 47.9255 69.888 47.9255Z" fill="#366D99"/>
<path d="M73.642 47.9819C73.5868 47.9819 73.5868 47.9819 73.5316 47.9819C73.4763 47.9819 73.4763 47.9819 73.4211 47.9819C73.3107 47.9819 73.2555 47.9819 73.2003 48.0383V51.6468H71.3786V48.0383H71.3234C71.2682 48.0383 71.2682 48.0383 71.213 48.0383C71.1026 48.0383 71.0474 48.0383 70.9922 48.0947V52.0415H73.642V52.8309C73.6972 52.8309 73.7524 52.8873 73.8076 52.8873C73.8628 52.8873 73.918 52.8872 73.9732 52.8309V51.7032H73.5316V47.9819H73.642Z" fill="#366D99"/>
<path d="M77.3958 47.9255C77.3406 47.9255 77.2854 47.9255 77.2854 47.9255C77.175 47.9255 77.1198 47.9255 77.0646 47.9819L75.6293 50.5191C75.4085 50.9702 75.2429 51.2521 75.1877 51.4213V51.3085C75.1877 51.1957 75.1877 51.083 75.1877 50.9138C75.1877 50.7447 75.1877 50.5191 75.1877 50.35V48.0383H75.1325C75.0773 48.0383 75.0773 48.0383 75.0221 48.0383C74.9117 48.0383 74.8565 48.0383 74.8013 48.0947V52.0415H74.8565C74.9117 52.0415 74.9117 52.0415 74.9669 52.0415C75.0221 52.0415 75.0221 52.0415 75.0773 52.0415H75.1325H75.1877C75.1877 52.0415 75.1877 52.0415 75.2429 52.0415L76.6782 49.5042C76.899 49.1096 77.0094 48.8277 77.0646 48.6585V48.7713C77.0646 48.8276 77.0646 48.9404 77.0646 49.1659C77.0646 49.3351 77.0646 49.5606 77.0646 49.7862V51.8723H77.1198C77.175 51.8723 77.175 51.8723 77.2302 51.8723C77.3406 51.8723 77.3958 51.8723 77.451 51.8159V47.8691C77.451 47.9255 77.451 47.9255 77.3958 47.9255Z" fill="#366D99"/>
<path d="M81.0945 47.9255C81.0393 47.9255 81.0393 47.9255 80.9841 47.9255C80.8737 47.9255 80.8185 47.9255 80.7633 47.9819V49.7298H78.9416V47.9819H78.8864C78.8312 47.9819 78.8312 47.9819 78.776 47.9819C78.6656 47.9819 78.6104 47.9819 78.5552 48.0383V51.9851H78.6104C78.6656 51.9851 78.6656 51.9851 78.7208 51.9851C78.8312 51.9851 78.8864 51.9851 78.9416 51.9287V50.0681H80.7633V51.8723H80.8185C80.8737 51.8723 80.8737 51.8723 80.9289 51.8723C81.0393 51.8723 81.0945 51.8723 81.1497 51.8159V47.8691C81.1497 47.9255 81.1497 47.9255 81.0945 47.9255Z" fill="#366D99"/>
<path d="M84.3513 51.534C84.2961 51.534 84.1856 51.5904 84.0752 51.5904C83.9648 51.5904 83.7992 51.6468 83.6888 51.6468C83.3024 51.6468 83.0264 51.534 82.8608 51.2521C82.64 51.0266 82.5847 50.5755 82.5847 49.9553C82.5847 49.3351 82.6952 48.884 82.8608 48.6585C83.0816 48.3766 83.3576 48.2638 83.6888 48.2638C83.9648 48.2638 84.2408 48.3202 84.4065 48.3766C84.5169 48.2638 84.5169 48.2074 84.5169 48.0383L84.4065 47.9819C84.3513 47.9255 84.2409 47.9255 84.0752 47.8691C83.9096 47.8127 83.744 47.8127 83.5784 47.8127C82.5847 47.8127 82.0327 48.4893 82.0327 49.8425C82.0327 51.1957 82.5295 51.8723 83.5784 51.8723C84.02 51.8723 84.3513 51.8159 84.5721 51.7032C84.5721 51.5904 84.5169 51.4776 84.4617 51.3649L84.3513 51.534Z" fill="#366D99"/>
<path d="M87.8294 47.9819C87.7742 47.9819 87.719 47.9255 87.6086 47.9255C87.5534 47.9255 87.443 47.9255 87.3878 47.9819L86.2285 49.6734H85.6765V47.9819H85.6213C85.5661 47.9819 85.5661 47.9819 85.5108 47.9819C85.4004 47.9819 85.3452 47.9819 85.29 48.0383V51.9851H85.3452C85.4004 51.9851 85.4004 51.9851 85.4557 51.9851C85.5661 51.9851 85.6213 51.9851 85.6765 51.9287V50.0681H86.2285L87.4982 51.9287C87.4982 51.9287 87.5534 51.9287 87.6086 51.9287C87.6638 51.9287 87.6638 51.9287 87.719 51.9287C87.8294 51.9287 87.8846 51.9287 87.9398 51.8723L86.5045 49.7862L87.8294 47.9819Z" fill="#366D99"/>
<path d="M90.0375 47.9819H89.9823C89.9271 47.9819 89.9271 47.9819 89.8719 47.9819C89.7615 47.9819 89.7063 47.9819 89.6511 48.0383L88.2158 51.9851H88.271C88.3262 51.9851 88.3262 51.9851 88.3814 51.9851C88.4918 51.9851 88.547 51.9851 88.6022 51.9287L88.9887 50.8575H90.7L91.0864 51.8724H91.1416C91.1968 51.8724 91.1968 51.8724 91.252 51.8724C91.3624 51.8724 91.4176 51.8724 91.4728 51.816L90.0375 47.9819ZM89.0991 50.5192L89.7063 48.8277C89.7615 48.6585 89.8167 48.5458 89.8167 48.433L89.9271 48.8277L90.5344 50.5192H89.0991Z" fill="#366D99"/>
<path d="M92.301 48.2638C92.0802 48.4894 91.9698 48.7713 91.9698 49.1096C91.9698 49.3915 92.025 49.617 92.1906 49.8425C92.3562 50.0681 92.5218 50.1808 92.7978 50.2372L91.9146 51.9287C91.9146 51.9287 91.9698 51.9287 92.025 51.9287C92.0802 51.9287 92.0802 51.9287 92.1354 51.9287C92.2458 51.9287 92.301 51.9287 92.3562 51.8723L93.2394 50.2372H94.1227V51.8723H94.1779C94.2331 51.8723 94.2331 51.8723 94.2883 51.8723C94.3987 51.8723 94.4539 51.8723 94.5091 51.8159V47.8691H93.129C92.7978 47.9255 92.5218 48.0383 92.301 48.2638ZM94.0675 48.2638V49.8989H93.129C92.9082 49.8989 92.7426 49.8425 92.577 49.6734C92.4666 49.5042 92.3562 49.3351 92.3562 49.0532C92.3562 48.7713 92.4114 48.6021 92.577 48.433C92.6874 48.2638 92.9082 48.2074 93.129 48.2074H94.0675V48.2638Z" fill="#366D99"/>
<path d="M99.367 47.9819C99.3118 47.9819 99.2566 47.9255 99.1462 47.9255C99.091 47.9255 98.9806 47.9255 98.9254 47.9819L97.7661 49.6734H97.2141V47.9819H97.1589C97.1037 47.9819 97.1037 47.9819 97.0485 47.9819C96.938 47.9819 96.8828 47.9819 96.8276 48.0383V51.9851H96.8828C96.938 51.9851 96.938 51.9851 96.9932 51.9851C97.1037 51.9851 97.1589 51.9851 97.2141 51.9287V50.0681H97.7661L99.0358 51.9287C99.0358 51.9287 99.091 51.9287 99.1462 51.9287C99.2014 51.9287 99.2014 51.9287 99.2566 51.9287C99.367 51.9287 99.4222 51.9287 99.4774 51.8723L98.0421 49.7862L99.367 47.9819Z" fill="#366D99"/>
<path d="M100.581 49.7298C100.581 50.0681 100.526 50.35 100.471 50.5755C100.416 50.8011 100.361 51.0266 100.361 51.1393C100.305 51.2521 100.25 51.3649 100.195 51.4213C100.14 51.4776 100.085 51.534 100.029 51.534C99.9743 51.534 99.9191 51.534 99.9191 51.5904H99.8638H99.8086H99.7534C99.7534 51.6468 99.6982 51.7032 99.6982 51.7596C99.6982 51.8159 99.6982 51.8723 99.7534 51.9287C99.8086 51.9287 99.8639 51.9851 99.9743 51.9851C100.029 51.9851 100.14 51.9851 100.195 51.9287C100.25 51.8723 100.361 51.8723 100.416 51.7596C100.526 51.6468 100.582 51.534 100.637 51.4213C100.692 51.3085 100.747 51.0266 100.802 50.7447C100.858 50.4628 100.913 50.1245 100.913 49.7298L101.023 48.2638H102.293V51.8723C102.293 51.8723 102.293 51.8723 102.348 51.8723H102.403H102.458C102.569 51.8723 102.624 51.8723 102.679 51.8159V47.8691H100.692L100.581 49.7298Z" fill="#366D99"/>
<path d="M106.378 47.9255C106.323 47.9255 106.267 47.9255 106.267 47.9255C106.157 47.9255 106.102 47.9255 106.047 47.9819L104.611 50.5191C104.39 50.9702 104.225 51.2521 104.17 51.4213V51.3085C104.17 51.1957 104.17 51.083 104.17 50.9138C104.17 50.7447 104.17 50.5191 104.17 50.35V48.0383H104.114C104.059 48.0383 104.059 48.0383 104.004 48.0383C103.894 48.0383 103.838 48.0383 103.783 48.0947V52.0415H103.838C103.894 52.0415 103.894 52.0415 103.949 52.0415C104.004 52.0415 104.004 52.0415 104.059 52.0415H104.114H104.17C104.17 52.0415 104.17 52.0415 104.225 52.0415L105.66 49.5042C105.881 49.1096 105.991 48.8277 106.047 48.6585V48.7713C106.047 48.8276 106.047 48.9404 106.047 49.1659C106.047 49.3351 106.047 49.5606 106.047 49.7862V51.8723H106.102C106.157 51.8723 106.157 51.8723 106.212 51.8723C106.323 51.8723 106.378 51.8723 106.433 51.8159V47.8691C106.433 47.9255 106.378 47.9255 106.378 47.9255Z" fill="#366D99"/>
<path d="M110.076 47.9255C110.021 47.9255 110.021 47.9255 109.966 47.9255C109.856 47.9255 109.8 47.9255 109.745 47.9819V49.7298H107.924V47.9819H107.868C107.813 47.9819 107.813 47.9819 107.758 47.9819C107.648 47.9819 107.592 47.9819 107.537 48.0383V51.9851H107.592C107.648 51.9851 107.648 51.9851 107.703 51.9851C107.813 51.9851 107.868 51.9851 107.924 51.9287V50.0681H109.745V51.8723H109.8C109.856 51.8723 109.856 51.8723 109.911 51.8723C110.021 51.8723 110.076 51.8723 110.132 51.8159V47.8691C110.132 47.9255 110.076 47.9255 110.076 47.9255Z" fill="#366D99"/>
<path d="M113.775 47.9255C113.72 47.9255 113.665 47.9255 113.665 47.9255C113.554 47.9255 113.499 47.9255 113.444 47.9819L112.009 50.5191C111.788 50.9702 111.622 51.2521 111.567 51.4213V51.3085C111.567 51.1957 111.567 51.083 111.567 50.9138C111.567 50.7447 111.567 50.5191 111.567 50.35V48.0383H111.512C111.457 48.0383 111.457 48.0383 111.401 48.0383C111.291 48.0383 111.236 48.0383 111.181 48.0947V52.0415H111.236C111.291 52.0415 111.291 52.0415 111.346 52.0415C111.401 52.0415 111.401 52.0415 111.457 52.0415H111.512H111.567C111.567 52.0415 111.567 52.0415 111.622 52.0415L113.058 49.5042C113.278 49.1096 113.389 48.8277 113.444 48.6585V48.7713C113.444 48.8276 113.444 48.9404 113.444 49.1659C113.444 49.3351 113.444 49.5606 113.444 49.7862V51.8723H113.499C113.554 51.8723 113.554 51.8723 113.61 51.8723C113.72 51.8723 113.775 51.8723 113.83 51.8159V47.8691C113.83 47.9255 113.83 47.9255 113.775 47.9255Z" fill="#366D99"/>
<path d="M117.473 47.9819C117.418 47.9819 117.363 47.9255 117.253 47.9255C117.197 47.9255 117.087 47.9255 117.032 47.9819L115.873 49.6734H115.321V47.9819H115.265C115.21 47.9819 115.21 47.9819 115.155 47.9819C115.044 47.9819 114.989 47.9819 114.934 48.0383V51.9851H114.989C115.044 51.9851 115.044 51.9851 115.1 51.9851C115.21 51.9851 115.265 51.9851 115.321 51.9287V50.0681H115.873L117.142 51.9287C117.142 51.9287 117.197 51.9287 117.253 51.9287C117.308 51.9287 117.308 51.9287 117.363 51.9287C117.473 51.9287 117.529 51.9287 117.584 51.8723L116.149 49.7862L117.473 47.9819Z" fill="#366D99"/>
<path d="M119.682 47.9819H119.626C119.571 47.9819 119.571 47.9819 119.516 47.9819C119.406 47.9819 119.35 47.9819 119.295 48.0383L117.86 51.9851H117.915C117.97 51.9851 117.97 51.9851 118.025 51.9851C118.136 51.9851 118.191 51.9851 118.246 51.9287L118.633 50.8575H120.344L120.73 51.9287H120.786C120.841 51.9287 120.841 51.9287 120.896 51.9287C121.006 51.9287 121.062 51.9287 121.117 51.8724L119.682 47.9819ZM118.743 50.5192L119.35 48.8277C119.406 48.6585 119.461 48.5458 119.461 48.433L119.571 48.8277L120.178 50.5192H118.743Z" fill="#366D99"/>
</svg>
