<svg width="15" height="25" viewBox="0 0 15 25" fill="none" xmlns="http://www.w3.org/2000/svg">
<path d="M10.7199 6.52551C10.7214 4.76818 9.39409 3.2713 7.48207 3.2713C5.64159 3.2713 4.24682 4.76253 4.24682 6.52508C4.24682 8.31426 5.67094 9.65761 7.48337 9.65761C9.36565 9.65761 10.7197 8.30704 10.7199 6.52551ZM10.7199 6.52551L10.2199 6.52508H10.7199C10.7199 6.52523 10.7199 6.52537 10.7199 6.52551ZM7.51036 12.4272L7.49622 12.4264H7.48207C4.06752 12.4264 1.26343 9.69661 1.26343 6.52383C1.26343 3.2251 4.07372 0.5 7.48337 0.5C11.0112 0.5 13.7015 3.2173 13.702 6.5229C13.6957 8.08754 13.0445 9.5899 11.8848 10.6987C10.7273 11.8054 9.1578 12.4289 7.51875 12.4277L7.51036 12.4272ZM10.0185 17.7753L10.1569 18.2486L9.81096 18.6143L9.81226 18.6156L10.0211 18.8165L10.0265 18.8149L13.6026 22.1413C14.1615 22.7311 14.1393 23.5454 13.6072 24.0576C12.9637 24.6756 12.068 24.6035 11.6686 24.1051L11.6471 24.0783L11.6221 24.0546L7.82704 20.4633L7.47758 20.1326L7.13368 20.4691L3.46627 24.0576C3.46582 24.058 3.46537 24.0584 3.46492 24.0588C3.19942 24.3137 2.83226 24.4553 2.38043 24.4553C2.08163 24.4553 1.70027 24.3301 1.34426 24.0439C0.826361 23.5317 0.808703 22.7272 1.36173 22.1413L5.20652 18.6215L5.86667 18.0172L5.00595 17.7719C3.65149 17.3858 2.35255 16.8393 1.13902 16.145L1.12905 16.1393L1.11882 16.134C0.511648 15.8227 0.308622 14.99 0.694024 14.2694C1.16168 13.615 1.97625 13.4318 2.74886 13.8962L2.74885 13.8962L2.75322 13.8988C4.17972 14.7367 5.81697 15.1791 7.48531 15.1791C9.15366 15.1791 10.7909 14.7367 12.2174 13.8988L12.2174 13.8988L12.2218 13.8962C13.017 13.4182 13.8807 13.6352 14.2765 14.2698L14.2766 14.27C14.708 14.961 14.4833 15.8189 13.8984 16.141L13.8889 16.1462L13.8796 16.1519C12.7486 16.8405 11.424 17.3641 10.0185 17.7753Z" stroke="#3AA2C4"/>
</svg>
