<svg width="20" height="20" viewBox="0 0 20 20" fill="none" xmlns="http://www.w3.org/2000/svg">
<path d="M8.21174 17.7557C3.6637 17.7557 0 13.7948 0 8.87783C0 3.96088 3.6637 0 8.21174 0C12.7598 0 16.4235 3.96088 16.4235 8.87783C16.4235 13.7948 12.7598 17.7557 8.21174 17.7557ZM8.21174 1.36582C4.35854 1.36582 1.26335 4.71208 1.26335 8.87783C1.26335 13.0436 4.35854 16.3898 8.21174 16.3898C12.0649 16.3898 15.1601 13.0436 15.1601 8.87783C15.1601 4.71208 12.0649 1.36582 8.21174 1.36582Z" fill="#3AA2C4"/>
<path d="M14.3273 12.9019L19.9997 19.0344L19.1065 20L13.4341 13.8675L14.3273 12.9019Z" fill="#3AA2C4"/>
</svg>
