<svg width="30" height="40" viewBox="0 0 30 40" fill="none" xmlns="http://www.w3.org/2000/svg">
<mask id="path-1-inside-1_231_157" fill="white">
<path d="M30 13.75C30 21.3439 16.8182 38.3333 15 40C13.1818 38.75 0 21.3439 0 13.75C0 6.15609 6.71573 0 15 0C23.2843 0 30 6.15609 30 13.75Z"/>
</mask>
<path d="M15 40L14.4335 40.824L15.0892 41.2748L15.6757 40.7372L15 40ZM29 13.75C29 15.4153 28.2602 17.732 27.0071 20.3951C25.7697 23.0249 24.0917 25.8703 22.344 28.5517C20.5984 31.23 18.7953 33.7264 17.3171 35.6549C15.8153 37.6141 14.7029 38.9157 14.3243 39.2628L15.6757 40.7372C16.2062 40.2509 17.4233 38.8039 18.9045 36.8716C20.4092 34.9084 22.2425 32.3703 24.0196 29.6437C25.7947 26.9202 27.5258 23.9903 28.8168 21.2466C30.0921 18.5364 31 15.8816 31 13.75H29ZM15.5665 39.176C15.4597 39.1025 15.1344 38.7925 14.5858 38.1659C14.0685 37.575 13.4175 36.7795 12.6799 35.8268C11.2053 33.9223 9.40366 31.4153 7.65833 28.7116C5.91129 26.0053 4.23284 23.1207 2.99486 20.4579C1.74104 17.761 1 15.4172 1 13.75H-1C-1 15.8797 -0.0933117 18.5595 1.18128 21.301C2.4717 24.0767 4.20234 27.0456 5.97803 29.7963C7.75543 32.5497 9.59019 35.1032 11.0985 37.0512C11.8523 38.0248 12.5295 38.8534 13.0811 39.4834C13.6014 40.0776 14.0857 40.585 14.4335 40.824L15.5665 39.176ZM1 13.75C1 6.7885 7.18433 1 15 1V-1C6.24713 -1 -1 5.52367 -1 13.75H1ZM15 1C22.8157 1 29 6.7885 29 13.75H31C31 5.52367 23.7529 -1 15 -1V1Z" fill="white" mask="url(#path-1-inside-1_231_157)"/>
<path d="M21.9545 13.7498C21.9545 17.3456 18.7606 20.3332 14.7273 20.3332C10.6939 20.3332 7.5 17.3456 7.5 13.7498C7.5 10.154 10.6939 7.1665 14.7273 7.1665C18.7606 7.1665 21.9545 10.154 21.9545 13.7498Z" stroke="white"/>
</svg>