<svg width="122" height="53" viewBox="0 0 122 53" fill="none" xmlns="http://www.w3.org/2000/svg">
<path d="M56.2521 5.13074C58.7915 4.39776 58.0187 -0.00010996 55.0377 0.789252C52.4983 1.52223 53.3263 5.9201 56.2521 5.13074Z" fill="white"/>
<path d="M81.3698 11.3893C81.3146 10.9946 81.149 10.1488 80.8177 9.47223C80.5969 8.96478 80.4865 8.96478 80.1553 8.45734C79.9897 8.00627 80.3761 7.94989 80.7073 7.78074C81.7562 7.27329 83.0811 6.5967 83.8539 6.14563L86.4485 4.22861C86.7245 4.05946 87.5526 3.15734 87.939 2.70627C88.6015 2.02968 89.1535 1.46585 89.3743 0.563721C89.2639 0.563721 89.0983 0.676487 88.9879 0.789253C88.4911 1.40947 87.9942 1.80415 87.4422 2.25521C85.0132 4.285 82.4739 5.29989 79.9345 5.86372C74.4693 7.04776 69.1146 6.70946 65.3055 13.1935C63.9254 10.9946 63.4838 10.318 61.2205 8.85202C56.8594 5.97649 53.3816 6.935 48.5788 5.18712C45.101 3.9467 44.1073 2.81904 41.3472 0.73287C42.1752 3.2701 46.2051 6.14563 48.6892 7.21691C49.7381 7.66798 50.5662 7.61159 50.2902 8.5701C48.1924 11.6148 49.6829 15.3924 51.339 17.8169C53.6024 21.0871 56.5282 23.6807 58.4603 26.1052C62.6006 31.3488 63.9806 34.0552 65.2503 41.2158C65.8576 37.551 66.3544 34.9573 67.9553 32.0254C68.7282 30.6722 69.3906 29.5446 70.2187 28.4169C72.7028 24.9212 76.015 22.1584 78.444 18.719C79.2721 17.6478 81.701 13.9829 81.3698 11.3893ZM75.7942 15.7871C75.6838 16.1818 75.463 16.5765 75.2974 17.0275C74.0277 19.5648 71.2123 22.4403 69.4458 24.752C65.968 29.5446 66.2992 31.5744 65.1951 34.2244C64.4775 29.4318 62.3797 26.1616 60.006 23.3988C58.6811 21.8765 57.3562 20.2978 56.0865 18.6627C54.2648 16.351 53.1607 11.2765 57.4114 10.9382C58.2947 10.8818 59.5092 10.9946 60.8892 11.7839C62.5454 12.6861 63.4838 13.6446 64.3119 15.1669C64.6431 15.7307 64.8639 16.1818 65.1951 16.7456C65.3607 17.0275 65.4159 16.9712 65.5816 16.7456C65.8024 16.2946 66.0232 16.069 66.2992 15.5616C67.4585 13.5318 69.1146 11.1073 72.758 11.051C75.4078 10.9382 76.7879 12.8552 75.7942 15.7871Z" fill="white"/>
<path d="M76.9539 5.1871C78.9964 4.96157 80.8181 4.56689 82.3086 3.60838C81.4806 3.60838 80.9838 3.66476 80.6525 3.60838C79.3829 3.49561 79.162 3.15731 77.4507 1.97327C76.8435 1.52221 76.0154 0.732847 74.8562 0.845613C73.7521 0.901996 73.0896 1.74774 72.924 2.64987C72.372 5.35625 74.9666 5.41263 76.9539 5.1871Z" fill="white"/>
<path d="M31.1348 40.8211C28.0986 40.8211 27.8778 40.7083 27.8778 37.9455V33.2658H30.4723C31.742 33.2658 32.1837 33.3221 32.5149 33.6604C32.7357 33.886 32.8461 34.5062 33.0117 35.4083H33.6189V30.2211H33.0117C32.7357 32.1381 32.6805 32.3072 30.4723 32.3072H27.8778V26.4434C27.8778 25.5977 27.933 25.5413 28.8714 25.5413H30.638C33.2877 25.5413 33.895 25.8796 34.3918 28.5296L35.0542 28.4732C34.9438 27.0072 34.7782 24.9211 34.7782 24.6392H23.3511V25.2594C25.4488 25.4285 25.6696 25.5977 25.6696 28.4732V37.9455C25.6696 40.8211 25.4488 40.9902 23.3511 41.1594V41.7232H35.3303C35.5511 41.0466 36.1031 38.3402 36.2135 37.6072L35.6063 37.5509C34.6126 40.4264 34.171 40.8211 31.1348 40.8211Z" fill="white"/>
<path d="M44.9358 24.6392H37.5938V25.2594C39.6915 25.4285 39.9123 25.5977 39.9123 28.4732V37.9455C39.9123 40.8211 39.6915 40.9902 37.5938 41.1594V41.7232H43.3901C49.4625 41.7232 54.3205 38.9041 54.3205 32.42C54.3757 28.9243 52.4987 24.6392 44.9358 24.6392ZM44.3838 40.8211C42.2309 40.8211 42.1205 40.2009 42.1205 38.3402V26.3306C42.1205 25.4849 42.1757 25.4285 44.2182 25.4285C49.7938 25.4285 51.8915 27.9658 51.8915 33.0966C51.8363 37.0434 49.7938 40.8211 44.3838 40.8211Z" fill="white"/>
<path d="M100.691 33.4913C102.789 32.6456 104.114 31.0668 104.114 28.9243C104.114 25.0339 100.47 24.6956 98.3173 24.6956H91.748V25.3158C93.8458 25.4849 94.0666 25.6541 94.0666 28.5296V38.0019C94.0666 40.8775 93.8458 41.0466 91.748 41.2158V41.7232H98.5381V41.103C96.4404 40.9339 96.2195 40.7647 96.2195 37.8892V34.1679H97.5996C98.3725 34.1679 98.7589 34.4498 99.2005 35.07C101.574 38.7349 102.016 41.8924 106.653 41.8924H106.984L107.039 41.3849C105.439 41.2158 103.562 38.2839 100.691 33.4913ZM97.8757 33.4349H96.2195V26.2743C96.2195 25.4849 96.2747 25.4285 97.8757 25.4285C99.8078 25.4285 101.74 26.5562 101.74 29.2626C101.74 31.7998 100.36 33.4349 97.8757 33.4349Z" fill="white"/>
<path d="M111.125 41.1031V41.7233H117.915V41.1031C115.817 40.9339 115.596 40.7648 115.596 37.8892V25.485H117.308C119.571 25.485 120.565 25.6541 121.062 28.5861L121.724 28.5297C121.558 27.0073 121.448 24.9775 121.448 23.9626H121.117C120.73 24.4701 120.565 24.6392 119.902 24.6392H109.303C108.586 24.6392 108.365 24.5829 107.978 23.9626H107.647C107.647 25.1467 107.426 27.0073 107.316 28.5861H107.978C108.696 26.0488 108.917 25.485 112.229 25.485H113.444V37.8892C113.444 40.7648 113.223 40.9339 111.125 41.1031Z" fill="white"/>
<path d="M19.4867 38.3966C19.2659 30.5594 19.1555 27.9094 19.1555 27.7402C19.1555 25.5413 19.4867 25.4285 21.5293 25.3158V24.6955H17.2786L11.151 38.2275L4.96819 24.6392H0.717508V25.2594C2.76004 25.4285 3.20167 25.5977 3.20167 27.7402C3.20167 27.9094 2.81525 39.0732 2.31841 40.1445C2.04239 40.7083 1.71117 40.9902 0.275879 41.103V41.7232H6.29307V41.103C3.91932 40.9902 3.80891 40.3136 3.80891 38.5094C3.80891 37.5509 3.80891 36.2541 4.14013 27.6838H4.19534L10.1021 41.3849H10.7646L17.0578 27.2892H17.113C17.2234 29.8264 17.2786 36.6487 17.2786 38.6785C17.2786 40.0881 17.1682 40.8211 16.1193 40.9338L15.0152 41.0466V41.7232H21.8053V41.103C19.6524 40.9338 19.5971 40.7083 19.4867 38.3966Z" fill="white"/>
<path d="M84.9583 40.9904L84.1302 41.1031V41.7234H90.313V41.1031C88.7121 40.9904 88.3809 40.8212 87.5528 38.5659L82.4189 24.2446L81.8669 24.5265L76.5673 38.4531C75.6841 40.7648 75.4632 40.934 73.8071 41.1595V41.7234H79.3275V41.1031L78.5546 41.0468C77.7818 40.9904 77.3954 40.8212 77.3954 40.2574C77.3954 39.9755 77.4506 39.5808 77.6714 39.0734L78.9411 35.2393H84.1854L85.8415 39.8063C85.8967 40.0882 85.9519 40.2574 85.9519 40.4265C85.8967 40.7648 85.6207 40.8776 84.9583 40.9904ZM79.2171 34.2244L81.4804 27.7404H81.5356L83.799 34.2244H79.2171Z" fill="white"/>
<path d="M3.75365 47.9255C3.69845 47.9255 3.64324 47.9255 3.58804 47.9255C3.47763 47.9255 3.42243 47.9255 3.31202 47.9819L2.26315 49.9553C2.15275 50.1245 2.09754 50.2936 2.09754 50.35C2.04234 50.2372 1.98714 50.0117 1.82152 49.7298L0.883063 47.9819L0.607045 47.9255C0.496638 47.9255 0.441434 47.9255 0.38623 47.9819V51.9287H0.441434C0.496638 51.9287 0.496638 51.9287 0.551841 51.9287C0.662249 51.9287 0.717452 51.9287 0.717452 51.8723V49.5042C0.717452 48.9404 0.717452 48.5457 0.662249 48.433C0.717452 48.6021 0.827859 48.884 1.04867 49.2787L1.93193 50.9138H2.04234C2.09754 50.9138 2.15275 50.9138 2.15275 50.9138L3.036 49.2787C3.25682 48.884 3.36723 48.6021 3.42243 48.4894C3.42243 48.6585 3.42243 48.9968 3.42243 49.617V51.8723H3.47763C3.53284 51.8723 3.53284 51.8723 3.58804 51.8723C3.69845 51.8723 3.75365 51.8723 3.80886 51.8159V47.8691H3.75365C3.80886 47.9255 3.80886 47.9255 3.75365 47.9255Z" fill="white"/>
<path d="M7.45245 47.9255C7.39725 47.9255 7.39725 47.9255 7.34205 47.9255C7.23164 47.9255 7.17643 47.9255 7.12123 47.9819V49.7298H5.29951V47.9819H5.24431C5.1891 47.9819 5.1891 47.9819 5.1339 47.9819C5.02349 47.9819 4.96829 47.9819 4.91309 48.0383V51.9851H4.96829C5.02349 51.9851 5.02349 51.9851 5.0787 51.9851C5.1891 51.9851 5.24431 51.9851 5.29951 51.9287V50.0681H7.12123V51.8723H7.17643C7.23164 51.8723 7.23164 51.8723 7.28684 51.8723C7.39725 51.8723 7.45245 51.8723 7.50766 51.8159V47.8691C7.50766 47.9255 7.50766 47.9255 7.45245 47.9255Z" fill="white"/>
<path d="M9.9363 47.8691C9.43947 47.8691 9.10824 48.0383 8.83223 48.3766C8.55621 48.7149 8.4458 49.2223 8.4458 49.8989C8.4458 51.2521 8.94263 51.9287 9.9363 51.9287C10.93 51.9287 11.4268 51.2521 11.4268 49.8989C11.4268 49.2223 11.3164 48.6585 11.0404 48.3202C10.7644 48.0383 10.3779 47.8691 9.9363 47.8691ZM10.7091 51.2521C10.5435 51.534 10.2675 51.6468 9.9363 51.6468C9.60508 51.6468 9.32906 51.534 9.16345 51.2521C8.99784 50.9702 8.88743 50.5755 8.88743 49.9553C8.88743 49.3351 8.99784 48.884 9.16345 48.6585C9.32906 48.3766 9.60508 48.2638 9.9363 48.2638C10.2675 48.2638 10.5435 48.3766 10.7091 48.6585C10.8748 48.9404 10.9852 49.3351 10.9852 49.9553C10.9852 50.5755 10.8748 50.9702 10.7091 51.2521Z" fill="white"/>
<path d="M12.2549 47.9255V51.8723H12.3101C12.3653 51.8723 12.3653 51.8723 12.4205 51.8723C12.5309 51.8723 12.5861 51.8723 12.6413 51.8159V48.2074H14.2974L14.3526 48.0383C14.3526 47.9819 14.3526 47.9255 14.2974 47.8691H12.2549V47.9255Z" fill="white"/>
<path d="M16.1194 47.8691C15.6226 47.8691 15.2914 48.0383 15.0153 48.3766C14.7393 48.7149 14.6289 49.2223 14.6289 49.8989C14.6289 51.2521 15.1257 51.9287 16.1194 51.9287C17.1131 51.9287 17.6099 51.2521 17.6099 49.8989C17.6099 49.2223 17.4995 48.6585 17.2235 48.3202C16.9475 48.0383 16.6162 47.8691 16.1194 47.8691ZM16.8923 51.2521C16.7266 51.534 16.4506 51.6468 16.1194 51.6468C15.7882 51.6468 15.5122 51.534 15.3466 51.2521C15.1809 50.9702 15.0705 50.5755 15.0705 49.9553C15.0705 49.3351 15.1809 48.884 15.3466 48.6585C15.5122 48.3766 15.7882 48.2638 16.1194 48.2638C16.4506 48.2638 16.7266 48.3766 16.8923 48.6585C17.0579 48.9404 17.1683 49.3351 17.1683 49.9553C17.1683 50.5755 17.1131 50.9702 16.8923 51.2521Z" fill="white"/>
<path d="M18.4932 51.8723C18.5484 51.8723 18.5484 51.8723 18.6036 51.8723C18.6588 51.8723 18.6588 51.8723 18.714 51.8723C18.8244 51.8723 18.8796 51.8723 18.9348 51.8159V48.2074H20.7013V51.8723H20.7565C20.8117 51.8723 20.8117 51.8723 20.8669 51.8723C20.9773 51.8723 21.0325 51.8723 21.0877 51.8159V47.8691H18.4932V51.8723V51.8723Z" fill="white"/>
<path d="M23.4616 47.9255H22.0815V51.8723H22.1367C22.1919 51.8723 22.1919 51.8723 22.2472 51.8723C22.3576 51.8723 22.4128 51.8723 22.468 51.816V50.2372H23.4616C23.7929 50.2372 24.0689 50.1245 24.2897 49.8989C24.5105 49.6734 24.6209 49.3915 24.6209 49.0532C24.6209 48.7149 24.5105 48.433 24.2897 48.2075C24.0689 48.0383 23.7929 47.9255 23.4616 47.9255ZM23.9585 49.7298C23.8481 49.8989 23.6272 49.9553 23.4064 49.9553H22.468V48.2638H23.4064C23.6272 48.2638 23.8481 48.3202 23.9585 48.4894C24.0689 48.6585 24.1241 48.8277 24.1241 49.1096C24.1793 49.3915 24.1241 49.617 23.9585 49.7298Z" fill="white"/>
<path d="M26.7185 47.8691C26.2217 47.8691 25.8905 48.0383 25.6145 48.3766C25.3384 48.7149 25.228 49.2223 25.228 49.8989C25.228 51.2521 25.7249 51.9287 26.7185 51.9287C27.7122 51.9287 28.209 51.2521 28.209 49.8989C28.209 49.2223 28.0986 48.6585 27.8226 48.3202C27.5466 48.0383 27.1602 47.8691 26.7185 47.8691ZM27.4914 51.2521C27.3258 51.534 27.0497 51.6468 26.7185 51.6468C26.3873 51.6468 26.1113 51.534 25.9457 51.2521C25.7801 50.9702 25.6697 50.5755 25.6697 49.9553C25.6697 49.3351 25.7801 48.884 25.9457 48.6585C26.1113 48.3766 26.3873 48.2638 26.7185 48.2638C27.0497 48.2638 27.3258 48.3766 27.4914 48.6585C27.657 48.9404 27.7674 49.3351 27.7674 49.9553C27.7674 50.5755 27.657 50.9702 27.4914 51.2521Z" fill="white"/>
<path d="M30.9137 48.3202V47.9255H30.8585C30.8032 47.9255 30.8032 47.9255 30.748 47.9255C30.6376 47.9255 30.5824 47.9255 30.5272 47.9819V48.3766C29.9752 48.3766 29.5888 48.4894 29.2575 48.7149C28.9815 48.9404 28.8159 49.3351 28.8159 49.8989C28.8159 50.1809 28.8711 50.4064 28.9263 50.6319C29.0367 50.8575 29.1471 50.9702 29.3127 51.083C29.4784 51.1957 29.644 51.2521 29.8648 51.3085C30.0856 51.3649 30.3064 51.3649 30.5272 51.3649V51.8723H30.5824C30.6376 51.8723 30.6376 51.8723 30.6928 51.8723C30.8032 51.8723 30.8585 51.8723 30.9137 51.816V51.3085C32.0729 51.3085 32.625 50.8011 32.625 49.7862C32.625 49.2223 32.4594 48.8277 32.1833 48.6021C31.8521 48.433 31.4105 48.3202 30.9137 48.3202ZM30.472 51.083C30.0856 51.083 29.7544 50.9702 29.5336 50.8011C29.3128 50.6319 29.2023 50.2936 29.2023 49.8426C29.2023 49.3915 29.3128 49.0532 29.5336 48.884C29.7544 48.7149 30.0856 48.6021 30.472 48.6021V51.083ZM31.8521 50.8011C31.6313 50.9702 31.3001 51.083 30.9137 51.083V48.6585C31.3001 48.6585 31.6313 48.7713 31.8521 48.9404C32.0729 49.1096 32.1833 49.4479 32.1833 49.8989C32.1833 50.35 32.0729 50.6319 31.8521 50.8011Z" fill="white"/>
<path d="M35.9925 47.9255C35.9373 47.9255 35.8821 47.9255 35.8821 47.9255C35.7717 47.9255 35.7165 47.9255 35.6613 47.9819L34.226 50.4628C34.0052 50.9138 33.8396 51.1957 33.7844 51.3649V51.2521C33.7844 51.1394 33.7844 51.0266 33.7844 50.8574C33.7844 50.6883 33.7844 50.4628 33.7844 50.2936V47.9819H33.7292C33.674 47.9819 33.674 47.9819 33.6188 47.9819C33.5084 47.9819 33.4532 47.9819 33.3979 48.0383V51.9851H33.4532C33.5084 51.9851 33.5084 51.9851 33.5636 51.9851C33.6188 51.9851 33.6188 51.9851 33.674 51.9851H33.7292H33.7844C33.7844 51.9851 33.7844 51.9851 33.8396 51.9851L35.2749 49.4479C35.4957 49.0532 35.6061 48.7713 35.6613 48.6021V48.7149C35.6613 48.7713 35.6613 48.884 35.6613 49.1096C35.6613 49.2787 35.6613 49.5042 35.6613 49.7298V51.8723H35.7165C35.7717 51.8723 35.7717 51.8723 35.8269 51.8723C35.9373 51.8723 35.9925 51.8723 36.0477 51.8159V47.8691C36.0477 47.9255 36.0477 47.9255 35.9925 47.9255Z" fill="white"/>
<path d="M37.5385 49.7298C37.5385 50.0681 37.4833 50.35 37.4281 50.5755C37.3729 50.8011 37.3177 51.0266 37.3177 51.1393C37.2625 51.2521 37.2073 51.3649 37.1521 51.4213C37.0969 51.4776 37.0417 51.534 36.9865 51.534C36.9313 51.534 36.8761 51.534 36.8761 51.5904H36.8209H36.7657H36.7105C36.7105 51.6468 36.6553 51.7032 36.6553 51.7596C36.6553 51.8159 36.6553 51.8723 36.7105 51.9287C36.7657 51.9287 36.8209 51.9851 36.9313 51.9851C36.9865 51.9851 37.0969 51.9851 37.1521 51.9287C37.2073 51.9287 37.3177 51.8723 37.3729 51.7596C37.4833 51.6468 37.5385 51.534 37.5937 51.4213C37.6489 51.2521 37.7041 51.0266 37.7593 50.7447C37.8146 50.4628 37.8698 50.1245 37.8698 49.7298L37.9802 48.2638H39.2498V51.8723C39.2498 51.8723 39.2498 51.8723 39.305 51.8723H39.3603H39.4155C39.5259 51.8723 39.5811 51.8723 39.6363 51.8159V47.8691H37.6489L37.5385 49.7298Z" fill="white"/>
<path d="M42.1755 49.6168H41.1267V47.9817H41.0715C41.0163 47.9817 41.0162 47.9817 40.961 47.9817C40.8506 47.9817 40.7954 47.9817 40.7402 48.0381V51.9849H42.1755C42.5067 51.9849 42.7828 51.8721 43.0036 51.6466C43.2244 51.421 43.3348 51.1391 43.3348 50.8008C43.3348 50.4625 43.2244 50.1806 43.0036 49.9551C42.7828 49.7296 42.5067 49.6168 42.1755 49.6168ZM42.6724 51.3647C42.562 51.5338 42.3411 51.5902 42.1203 51.5902H41.1267V50.0115H42.1203C42.3411 50.0115 42.562 50.0679 42.6724 50.237C42.7828 50.4062 42.8932 50.5753 42.8932 50.8008C42.8932 51.0264 42.838 51.2519 42.6724 51.3647Z" fill="white"/>
<path d="M46.6468 47.9255C46.5916 47.9255 46.5916 47.9255 46.5364 47.9255C46.426 47.9255 46.3708 47.9255 46.3156 47.9819V49.7298H44.4938V47.9819H44.4386C44.3834 47.9819 44.3834 47.9819 44.3282 47.9819C44.2178 47.9819 44.1626 47.9819 44.1074 48.0383V51.9851H44.1626C44.2178 51.9851 44.2178 51.9851 44.273 51.9851C44.3834 51.9851 44.4386 51.9851 44.4938 51.9287V50.0681H46.3156V51.8723H46.3708C46.426 51.8723 46.426 51.8723 46.4812 51.8723C46.5916 51.8723 46.6468 51.8723 46.702 51.8159V47.8691C46.702 47.9255 46.6468 47.9255 46.6468 47.9255Z" fill="white"/>
<path d="M49.1865 47.9817H49.1313C49.0761 47.9817 49.0761 47.9817 49.0209 47.9817C48.9104 47.9817 48.8552 47.9817 48.8 48.0381L47.3647 51.9849H47.4199C47.4752 51.9849 47.4752 51.9849 47.5304 51.9849C47.6408 51.9849 47.696 51.9849 47.7512 51.9285L48.1376 50.8572H49.8489L50.2353 51.8721H50.2905C50.3457 51.8721 50.3457 51.8721 50.4009 51.8721C50.5113 51.8721 50.5666 51.8721 50.6218 51.8157L49.1865 47.9817ZM48.248 50.5189L48.8552 48.8274C48.9104 48.6583 48.9656 48.5455 48.9656 48.4328L49.0761 48.8274L49.6833 50.5189H48.248Z" fill="white"/>
<path d="M51.4494 48.2638C51.2286 48.4894 51.1182 48.7713 51.1182 49.1096C51.1182 49.3915 51.1734 49.617 51.339 49.8425C51.4494 50.0681 51.6702 50.1808 51.9462 50.2372L51.063 51.9287C51.063 51.9287 51.1182 51.9287 51.1734 51.9287C51.2286 51.9287 51.2286 51.9287 51.2838 51.9287C51.3942 51.9287 51.4494 51.9287 51.5046 51.8723L52.3879 50.2372H53.2711V51.8723H53.3263C53.3815 51.8723 53.3815 51.8723 53.4367 51.8723C53.5472 51.8723 53.6024 51.8723 53.6576 51.8159V47.8691H52.2775C51.9462 47.9255 51.6702 48.0383 51.4494 48.2638ZM53.2159 48.2638V49.8989H52.2775C52.0567 49.8989 51.891 49.8425 51.7254 49.6734C51.615 49.5042 51.5046 49.3351 51.5046 49.0532C51.5046 48.7713 51.5598 48.6021 51.7254 48.433C51.8358 48.2638 52.0567 48.2074 52.2775 48.2074H53.2159V48.2638Z" fill="white"/>
<path d="M59.344 47.9255C59.2887 47.9255 59.2335 47.9255 59.1783 47.9255C59.0679 47.9255 59.0127 47.9255 58.9023 47.9819L57.8535 49.9553C57.7431 50.1245 57.6878 50.2936 57.6878 50.35C57.6326 50.2372 57.5774 50.0117 57.4118 49.7298L56.4734 47.9819L56.2526 47.9255C56.1421 47.9255 56.0869 47.9255 56.0317 47.9819V51.9287H56.0869C56.1421 51.9287 56.1421 51.9287 56.1974 51.9287C56.3078 51.9287 56.363 51.9287 56.363 51.8723V49.5042C56.363 48.9404 56.363 48.5457 56.3078 48.433C56.363 48.6021 56.4734 48.884 56.6942 49.2787L57.5774 50.9138H57.6878C57.743 50.9138 57.7983 50.9138 57.7983 50.9138L58.6815 49.2787C58.9023 48.884 59.0127 48.6021 59.0679 48.4894C59.0679 48.6585 59.0679 48.9968 59.0679 49.617V51.8723H59.1231C59.1783 51.8723 59.1783 51.8723 59.2335 51.8723C59.344 51.8723 59.3992 51.8723 59.4544 51.8159V47.8691H59.3992C59.4544 47.9255 59.3992 47.9255 59.344 47.9255Z" fill="white"/>
<path d="M60.9445 51.5904V50.0681H62.435C62.435 50.0117 62.4902 49.9553 62.4902 49.8989C62.4902 49.8426 62.4902 49.7862 62.435 49.7298H60.9445V48.2638H62.711C62.711 48.2075 62.7662 48.1511 62.7662 48.0947C62.7662 48.0383 62.7662 47.9819 62.711 47.9255H60.5581V51.9287H62.7662C62.7662 51.8723 62.8215 51.816 62.8215 51.7596C62.8215 51.7032 62.8214 51.6468 62.7662 51.5904H60.9445V51.5904Z" fill="white"/>
<path d="M66.0787 47.9255H64.0361L63.8705 49.8989C63.8153 50.7447 63.6497 51.3085 63.4289 51.5904H63.0977V52.7181C63.1529 52.7181 63.2081 52.7745 63.2633 52.7745C63.3185 52.7745 63.3737 52.7745 63.4289 52.7181V51.9287H66.0787V52.7181C66.1339 52.7181 66.1891 52.7745 66.2443 52.7745C66.2995 52.7745 66.3547 52.7745 66.4099 52.7181V51.5904H65.9682V47.9255H66.0787ZM65.6922 51.5904H63.9257C64.0913 51.2521 64.2569 50.6883 64.3121 49.9553L64.4225 48.2638H65.6922V51.5904Z" fill="white"/>
<path d="M69.8875 47.9255C69.8323 47.9255 69.7771 47.9255 69.7771 47.9255C69.6667 47.9255 69.6115 47.9255 69.5563 47.9819L68.121 50.5191C67.9002 50.9702 67.7346 51.2521 67.6794 51.4213V51.3085C67.6794 51.1957 67.6794 51.083 67.6794 50.9138C67.6794 50.7447 67.6794 50.5191 67.6794 50.35V48.0383H67.6242C67.569 48.0383 67.569 48.0383 67.5138 48.0383C67.4034 48.0383 67.3482 48.0383 67.293 48.0947V52.0415H67.3482C67.4034 52.0415 67.4034 52.0415 67.4586 52.0415C67.5138 52.0415 67.5138 52.0415 67.569 52.0415H67.6242H67.6794C67.6794 52.0415 67.6794 52.0415 67.7346 52.0415L69.1699 49.5042C69.3907 49.1096 69.5011 48.8277 69.5563 48.6585V48.7713C69.5563 48.8276 69.5563 48.9404 69.5563 49.1659C69.5563 49.3351 69.5563 49.5606 69.5563 49.7862V51.8723H69.6115C69.6667 51.8723 69.6667 51.8723 69.7219 51.8723C69.8323 51.8723 69.8875 51.8723 69.9427 51.8159V47.8691C69.9427 47.9255 69.8875 47.9255 69.8875 47.9255Z" fill="white"/>
<path d="M73.6415 47.9817C73.5863 47.9817 73.5863 47.9817 73.5311 47.9817C73.4759 47.9817 73.4759 47.9817 73.4207 47.9817C73.3103 47.9817 73.255 47.9817 73.1998 48.0381V51.6466H71.3781V48.0381H71.3229C71.2677 48.0381 71.2677 48.0381 71.2125 48.0381C71.1021 48.0381 71.0469 48.0381 70.9917 48.0945V52.0413H73.6415V52.8306C73.6967 52.8306 73.7519 52.887 73.8071 52.887C73.8623 52.887 73.9175 52.887 73.9727 52.8306V51.703H73.5311V47.9817H73.6415Z" fill="white"/>
<path d="M77.3953 47.9255C77.3401 47.9255 77.2849 47.9255 77.2849 47.9255C77.1745 47.9255 77.1193 47.9255 77.0641 47.9819L75.6288 50.5191C75.408 50.9702 75.2424 51.2521 75.1872 51.4213V51.3085C75.1872 51.1957 75.1872 51.083 75.1872 50.9138C75.1872 50.7447 75.1872 50.5191 75.1872 50.35V48.0383H75.132C75.0768 48.0383 75.0768 48.0383 75.0216 48.0383C74.9112 48.0383 74.856 48.0383 74.8008 48.0947V52.0415H74.856C74.9112 52.0415 74.9112 52.0415 74.9664 52.0415C75.0216 52.0415 75.0216 52.0415 75.0768 52.0415H75.132H75.1872C75.1872 52.0415 75.1872 52.0415 75.2424 52.0415L76.6777 49.5042C76.8985 49.1096 77.0089 48.8277 77.0641 48.6585V48.7713C77.0641 48.8276 77.0641 48.9404 77.0641 49.1659C77.0641 49.3351 77.0641 49.5606 77.0641 49.7862V51.8723H77.1193C77.1745 51.8723 77.1745 51.8723 77.2297 51.8723C77.3401 51.8723 77.3953 51.8723 77.4505 51.8159V47.8691C77.4505 47.9255 77.4505 47.9255 77.3953 47.9255Z" fill="white"/>
<path d="M81.0941 47.9255C81.0389 47.9255 81.0389 47.9255 80.9836 47.9255C80.8732 47.9255 80.818 47.9255 80.7628 47.9819V49.7298H78.9411V47.9819H78.8859C78.8307 47.9819 78.8307 47.9819 78.7755 47.9819C78.6651 47.9819 78.6099 47.9819 78.5547 48.0383V51.9851H78.6099C78.6651 51.9851 78.6651 51.9851 78.7203 51.9851C78.8307 51.9851 78.8859 51.9851 78.9411 51.9287V50.0681H80.7628V51.8723H80.818C80.8732 51.8723 80.8732 51.8723 80.9284 51.8723C81.0389 51.8723 81.0941 51.8723 81.1493 51.8159V47.8691C81.1493 47.9255 81.1493 47.9255 81.0941 47.9255Z" fill="white"/>
<path d="M84.3508 51.534C84.2956 51.534 84.1852 51.5904 84.0748 51.5904C83.9643 51.5904 83.7987 51.6468 83.6883 51.6468C83.3019 51.6468 83.0259 51.534 82.8603 51.2521C82.6395 51.0266 82.5843 50.5755 82.5843 49.9553C82.5843 49.3351 82.6947 48.884 82.8603 48.6585C83.0811 48.3766 83.3571 48.2638 83.6883 48.2638C83.9643 48.2638 84.2404 48.3202 84.406 48.3766C84.5164 48.2638 84.5164 48.2074 84.5164 48.0383L84.406 47.9819C84.3508 47.9255 84.2404 47.9255 84.0748 47.8691C83.9091 47.8127 83.7435 47.8127 83.5779 47.8127C82.5843 47.8127 82.0322 48.4893 82.0322 49.8425C82.0322 51.1957 82.5291 51.8723 83.5779 51.8723C84.0195 51.8723 84.3508 51.8159 84.5716 51.7032C84.5716 51.5904 84.5164 51.4776 84.4612 51.3649L84.3508 51.534Z" fill="white"/>
<path d="M87.8289 47.9819C87.7737 47.9819 87.7185 47.9255 87.6081 47.9255C87.5529 47.9255 87.4425 47.9255 87.3873 47.9819L86.228 49.6734H85.676V47.9819H85.6208C85.5656 47.9819 85.5656 47.9819 85.5104 47.9819C85.4 47.9819 85.3448 47.9819 85.2896 48.0383V51.9851H85.3448C85.4 51.9851 85.4 51.9851 85.4552 51.9851C85.5656 51.9851 85.6208 51.9851 85.676 51.9287V50.0681H86.228L87.4977 51.9287C87.4977 51.9287 87.5529 51.9287 87.6081 51.9287C87.6633 51.9287 87.6633 51.9287 87.7185 51.9287C87.8289 51.9287 87.8841 51.9287 87.9393 51.8723L86.504 49.7862L87.8289 47.9819Z" fill="white"/>
<path d="M90.0371 47.9817H89.9818C89.9266 47.9817 89.9266 47.9817 89.8714 47.9817C89.761 47.9817 89.7058 47.9817 89.6506 48.0381L88.2153 51.9849H88.2705C88.3257 51.9849 88.3257 51.9849 88.3809 51.9849C88.4914 51.9849 88.5466 51.9849 88.6018 51.9285L88.9882 50.8572H90.6995L91.0859 51.8721H91.1411C91.1963 51.8721 91.1963 51.8721 91.2515 51.8721C91.3619 51.8721 91.4171 51.8721 91.4723 51.8157L90.0371 47.9817ZM89.0986 50.5189L89.7058 48.8274C89.761 48.6583 89.8162 48.5455 89.8162 48.4328L89.9266 48.8274L90.5339 50.5189H89.0986Z" fill="white"/>
<path d="M92.3005 48.2638C92.0797 48.4894 91.9693 48.7713 91.9693 49.1096C91.9693 49.3915 92.0245 49.617 92.1901 49.8425C92.3557 50.0681 92.5213 50.1808 92.7973 50.2372L91.9141 51.9287C91.9141 51.9287 91.9693 51.9287 92.0245 51.9287C92.0797 51.9287 92.0797 51.9287 92.1349 51.9287C92.2453 51.9287 92.3005 51.9287 92.3557 51.8723L93.2389 50.2372H94.1222V51.8723H94.1774C94.2326 51.8723 94.2326 51.8723 94.2878 51.8723C94.3982 51.8723 94.4534 51.8723 94.5086 51.8159V47.8691H93.1285C92.7973 47.9255 92.5213 48.0383 92.3005 48.2638ZM94.067 48.2638V49.8989H93.1285C92.9077 49.8989 92.7421 49.8425 92.5765 49.6734C92.4661 49.5042 92.3557 49.3351 92.3557 49.0532C92.3557 48.7713 92.4109 48.6021 92.5765 48.433C92.6869 48.2638 92.9077 48.2074 93.1285 48.2074H94.067V48.2638Z" fill="white"/>
<path d="M99.3665 47.9819C99.3113 47.9819 99.2561 47.9255 99.1457 47.9255C99.0905 47.9255 98.9801 47.9255 98.9249 47.9819L97.7656 49.6734H97.2136V47.9819H97.1584C97.1032 47.9819 97.1032 47.9819 97.048 47.9819C96.9376 47.9819 96.8824 47.9819 96.8271 48.0383V51.9851H96.8824C96.9376 51.9851 96.9376 51.9851 96.9928 51.9851C97.1032 51.9851 97.1584 51.9851 97.2136 51.9287V50.0681H97.7656L99.0353 51.9287C99.0353 51.9287 99.0905 51.9287 99.1457 51.9287C99.2009 51.9287 99.2009 51.9287 99.2561 51.9287C99.3665 51.9287 99.4217 51.9287 99.4769 51.8723L98.0416 49.7862L99.3665 47.9819Z" fill="white"/>
<path d="M100.581 49.7298C100.581 50.0681 100.526 50.35 100.471 50.5755C100.415 50.8011 100.36 51.0266 100.36 51.1393C100.305 51.2521 100.25 51.3649 100.195 51.4213C100.139 51.4776 100.084 51.534 100.029 51.534C99.9738 51.534 99.9186 51.534 99.9186 51.5904H99.8634H99.8082H99.753C99.753 51.6468 99.6978 51.7032 99.6978 51.7596C99.6978 51.8159 99.6977 51.8723 99.753 51.9287C99.8082 51.9287 99.8634 51.9851 99.9738 51.9851C100.029 51.9851 100.139 51.9851 100.195 51.9287C100.25 51.8723 100.36 51.8723 100.415 51.7596C100.526 51.6468 100.581 51.534 100.636 51.4213C100.691 51.3085 100.747 51.0266 100.802 50.7447C100.857 50.4628 100.912 50.1245 100.912 49.7298L101.023 48.2638H102.292V51.8723C102.292 51.8723 102.292 51.8723 102.348 51.8723H102.403H102.458C102.568 51.8723 102.624 51.8723 102.679 51.8159V47.8691H100.691L100.581 49.7298Z" fill="white"/>
<path d="M106.377 47.9255C106.322 47.9255 106.267 47.9255 106.267 47.9255C106.156 47.9255 106.101 47.9255 106.046 47.9819L104.611 50.5191C104.39 50.9702 104.224 51.2521 104.169 51.4213V51.3085C104.169 51.1957 104.169 51.083 104.169 50.9138C104.169 50.7447 104.169 50.5191 104.169 50.35V48.0383H104.114C104.059 48.0383 104.059 48.0383 104.004 48.0383C103.893 48.0383 103.838 48.0383 103.783 48.0947V52.0415H103.838C103.893 52.0415 103.893 52.0415 103.948 52.0415C104.004 52.0415 104.004 52.0415 104.059 52.0415H104.114H104.169C104.169 52.0415 104.169 52.0415 104.224 52.0415L105.66 49.5042C105.88 49.1096 105.991 48.8277 106.046 48.6585V48.7713C106.046 48.8276 106.046 48.9404 106.046 49.1659C106.046 49.3351 106.046 49.5606 106.046 49.7862V51.8723H106.101C106.156 51.8723 106.156 51.8723 106.212 51.8723C106.322 51.8723 106.377 51.8723 106.432 51.8159V47.8691C106.432 47.9255 106.377 47.9255 106.377 47.9255Z" fill="white"/>
<path d="M110.076 47.9255C110.021 47.9255 110.021 47.9255 109.966 47.9255C109.855 47.9255 109.8 47.9255 109.745 47.9819V49.7298H107.923V47.9819H107.868C107.813 47.9819 107.813 47.9819 107.757 47.9819C107.647 47.9819 107.592 47.9819 107.537 48.0383V51.9851H107.592C107.647 51.9851 107.647 51.9851 107.702 51.9851C107.813 51.9851 107.868 51.9851 107.923 51.9287V50.0681H109.745V51.8723H109.8C109.855 51.8723 109.855 51.8723 109.91 51.8723C110.021 51.8723 110.076 51.8723 110.131 51.8159V47.8691C110.131 47.9255 110.076 47.9255 110.076 47.9255Z" fill="white"/>
<path d="M113.775 47.9255C113.72 47.9255 113.664 47.9255 113.664 47.9255C113.554 47.9255 113.499 47.9255 113.444 47.9819L112.008 50.5191C111.787 50.9702 111.622 51.2521 111.567 51.4213V51.3085C111.567 51.1957 111.567 51.083 111.567 50.9138C111.567 50.7447 111.567 50.5191 111.567 50.35V48.0383H111.511C111.456 48.0383 111.456 48.0383 111.401 48.0383C111.291 48.0383 111.235 48.0383 111.18 48.0947V52.0415H111.235C111.291 52.0415 111.291 52.0415 111.346 52.0415C111.401 52.0415 111.401 52.0415 111.456 52.0415H111.511H111.567C111.567 52.0415 111.567 52.0415 111.622 52.0415L113.057 49.5042C113.278 49.1096 113.388 48.8277 113.444 48.6585V48.7713C113.444 48.8276 113.444 48.9404 113.444 49.1659C113.444 49.3351 113.444 49.5606 113.444 49.7862V51.8723H113.499C113.554 51.8723 113.554 51.8723 113.609 51.8723C113.72 51.8723 113.775 51.8723 113.83 51.8159V47.8691C113.83 47.9255 113.83 47.9255 113.775 47.9255Z" fill="white"/>
<path d="M117.473 47.9819C117.418 47.9819 117.363 47.9255 117.252 47.9255C117.197 47.9255 117.087 47.9255 117.031 47.9819L115.872 49.6734H115.32V47.9819H115.265C115.21 47.9819 115.21 47.9819 115.154 47.9819C115.044 47.9819 114.989 47.9819 114.934 48.0383V51.9851H114.989C115.044 51.9851 115.044 51.9851 115.099 51.9851C115.21 51.9851 115.265 51.9851 115.32 51.9287V50.0681H115.872L117.142 51.9287C117.142 51.9287 117.197 51.9287 117.252 51.9287C117.307 51.9287 117.307 51.9287 117.363 51.9287C117.473 51.9287 117.528 51.9287 117.583 51.8723L116.148 49.7862L117.473 47.9819Z" fill="white"/>
<path d="M119.681 47.9817H119.626C119.571 47.9817 119.571 47.9817 119.515 47.9817C119.405 47.9817 119.35 47.9817 119.295 48.0381L117.859 51.9849H117.915C117.97 51.9849 117.97 51.9849 118.025 51.9849C118.135 51.9849 118.191 51.9849 118.246 51.9285L118.632 50.8572H120.344L120.73 51.9285H120.785C120.84 51.9285 120.84 51.9285 120.896 51.9285C121.006 51.9285 121.061 51.9285 121.116 51.8721L119.681 47.9817ZM118.743 50.5189L119.35 48.8274C119.405 48.6583 119.46 48.5455 119.46 48.4328L119.571 48.8274L120.178 50.5189H118.743Z" fill="white"/>
</svg>
