<svg width="18" height="30" viewBox="0 0 18 30" fill="none" xmlns="http://www.w3.org/2000/svg">
<path d="M12.7639 7.83053C12.7657 5.77344 11.2142 4.02556 8.97848 4.02556C6.82733 4.02556 5.19618 5.76805 5.19618 7.8301C5.19618 9.91828 6.85669 11.4891 8.98004 11.4891C11.1857 11.4891 12.7637 9.91106 12.7639 7.83053ZM12.7639 7.83053L12.2639 7.8301H12.7639C12.7639 7.83024 12.7639 7.83039 12.7639 7.83053ZM9.00675 15.0125L8.99263 15.0117H8.97848C4.83012 15.0117 1.41612 11.6954 1.41612 7.8286C1.41612 3.81185 4.83632 0.5 8.98004 0.5C13.2669 0.5 16.5419 3.80381 16.5424 7.82767C16.5348 9.73308 15.7418 11.5618 14.3309 12.9107C12.9222 14.2576 11.0127 15.0155 9.01962 15.0132L9.00675 15.0125ZM12.0502 21.4264L12.1886 21.8993L11.8425 22.2652L11.8441 22.2667L12.053 22.4675L12.0583 22.466L16.3935 26.4985C17.1015 27.2435 17.0794 28.285 16.3983 28.9408C15.5932 29.7144 14.4482 29.6424 13.9243 28.9887L13.9028 28.9618L13.8778 28.9382L9.32371 24.6286L8.97425 24.2979L8.63036 24.6344L4.22886 28.9411C4.2284 28.9416 4.22795 28.942 4.22749 28.9424C3.88745 29.269 3.42056 29.4464 2.85651 29.4464C2.47083 29.4464 1.98992 29.2853 1.54647 28.9274C0.879459 28.2715 0.861563 27.2398 1.56389 26.4982L6.18031 22.2721L6.84046 21.6677L5.97973 21.4224C4.34666 20.957 2.78046 20.298 1.31716 19.4608L1.30719 19.4551L1.29697 19.4498C0.5033 19.0429 0.262639 17.9712 0.747719 17.0704C1.33988 16.2366 2.37823 16.0056 3.35015 16.5897L3.35014 16.5898L3.35451 16.5923C5.05079 17.5886 6.99798 18.1149 8.98238 18.1149C10.9668 18.1149 12.914 17.5886 14.6102 16.5923L14.6103 16.5924L14.6146 16.5897C15.6091 15.992 16.7089 16.2567 17.2166 17.0708L17.2167 17.071C17.7604 17.9418 17.4855 19.0387 16.7264 19.4568L16.7169 19.462L16.7076 19.4677C15.3404 20.3 13.742 20.9314 12.0502 21.4264Z" stroke="white"/>
</svg>
