<svg width="42" height="42" viewBox="0 0 42 42" fill="none" xmlns="http://www.w3.org/2000/svg">
<path d="M39.0609 27.7859C36.7723 27.5034 34.4998 27.1028 32.2525 26.5858C31.7038 26.4024 31.1171 26.3637 30.5491 26.4735C29.9811 26.5834 29.4511 26.8381 29.0103 27.2129C28.4376 27.7968 26.7841 29.4294 25.0658 31.116C18.9092 28.0882 13.9302 23.1032 10.9085 16.9415C12.5836 15.2224 14.1506 13.579 14.7882 13.0059C15.1629 12.565 15.4174 12.0347 15.5272 11.4665C15.6371 10.8982 15.5984 10.3112 15.415 9.76233C14.8976 7.51047 14.4972 5.2333 14.2154 2.93996C14.1853 2.64792 14.0959 2.36509 13.9529 2.10871C13.81 1.85233 13.6163 1.62776 13.3837 1.44871C13.1511 1.26965 12.8846 1.13985 12.6002 1.06722C12.3159 0.994583 12.0197 0.980641 11.7298 1.02624H2.52219C2.14212 1.06057 1.78634 1.22794 1.51749 1.49889C1.24864 1.76984 1.08396 2.127 1.05243 2.50748C0.458038 10.8219 5.09427 19.7202 6.03449 21.4285V21.4934L6.16418 21.742C9.52987 27.5821 14.376 32.4304 20.2134 35.7976V35.7976L20.6889 36.0679C22.8503 37.214 31.4419 41.5388 39.4716 40.9442C39.8557 40.9175 40.2179 40.7549 40.4931 40.4855C40.7684 40.216 40.9388 39.8574 40.9738 39.4737V30.2727C41.0194 29.9827 41.0054 29.6864 40.9328 29.4019C40.8602 29.1174 40.7305 28.8507 40.5515 28.6181C40.3725 28.3854 40.1481 28.1916 39.8918 28.0486C39.6355 27.9055 39.3528 27.8161 39.0609 27.7859Z" stroke="white" stroke-linecap="round" stroke-linejoin="round"/>
</svg>
