<svg width="42" height="42" viewBox="0 0 42 42" fill="none" xmlns="http://www.w3.org/2000/svg">
<path d="M21 1C24.9556 1 28.8224 2.17298 32.1114 4.37061C35.4004 6.56823 37.9638 9.69181 39.4776 13.3463C40.9913 17.0008 41.3874 21.0222 40.6157 24.9018C39.844 28.7814 37.9392 32.3451 35.1421 35.1421C32.3451 37.9392 28.7814 39.844 24.9018 40.6157C21.0222 41.3874 17.0008 40.9913 13.3463 39.4776C9.69181 37.9638 6.56823 35.4004 4.37061 32.1114C2.17298 28.8224 1 24.9556 1 21C1.00247 15.6964 3.11039 10.6108 6.86059 6.86059C10.6108 3.11039 15.6964 1.00247 21 1V1Z" stroke="white" stroke-linecap="round" stroke-linejoin="round"/>
<path d="M21 9.31616V20.9999L31.6774 27.7946" stroke="white" stroke-linecap="round" stroke-linejoin="round"/>
</svg>
