<svg width="22" height="30" viewBox="0 0 22 30" fill="none" xmlns="http://www.w3.org/2000/svg">
<path d="M17.5 10.5C17.5 13.7795 14.6254 16.5 11 16.5C7.37461 16.5 4.5 13.7795 4.5 10.5C4.5 7.22054 7.37461 4.5 11 4.5C14.6254 4.5 17.5 7.22054 17.5 10.5Z" stroke="#3AA2C4"/>
<path d="M21.5 10.3125C21.5 11.6223 20.9361 13.4036 20.0145 15.4067C19.1004 17.3935 17.8633 19.5383 16.5783 21.5546C15.2943 23.5694 13.9684 25.4469 12.8812 26.8975C12.0568 27.9974 11.3847 28.8317 10.9754 29.2969C10.8542 29.1696 10.7035 29.0026 10.5244 28.7933C10.1408 28.3453 9.66031 27.7446 9.11739 27.0274C8.0319 25.5937 6.70667 23.7076 5.42282 21.6736C4.13815 19.6383 2.90082 17.4642 1.98643 15.4527C1.06451 13.4246 0.5 11.6232 0.5 10.3125C0.5 4.92311 5.17012 0.5 11 0.5C16.8299 0.5 21.5 4.92311 21.5 10.3125Z" stroke="#F06A61"/>
</svg>
