<svg width="32" height="32" viewBox="0 0 32 32" fill="none" xmlns="http://www.w3.org/2000/svg">
<path d="M29.5457 21.0895C27.8292 20.8775 26.1248 20.5771 24.4393 20.1894C24.0278 20.0518 23.5878 20.0228 23.1618 20.1052C22.7359 20.1876 22.3383 20.3786 22.0078 20.6597C21.5782 21.0976 20.3381 22.322 19.0493 23.587C14.4319 21.3162 10.6977 17.5774 8.43136 12.9561C9.68768 11.6668 10.863 10.4342 11.3412 10.0045C11.6222 9.67372 11.8131 9.27602 11.8954 8.84984C11.9778 8.42367 11.9488 7.98344 11.8113 7.57175C11.4232 5.88286 11.1229 4.17497 10.9116 2.45497C10.8889 2.23594 10.822 2.02382 10.7147 1.83153C10.6075 1.63925 10.4622 1.47082 10.2878 1.33653C10.1133 1.20224 9.91341 1.10489 9.70016 1.05041C9.4869 0.995937 9.26479 0.98548 9.04737 1.01968H2.14164C1.85659 1.04542 1.58976 1.17095 1.38812 1.37417C1.18648 1.57738 1.06297 1.84525 1.03932 2.13061C0.593529 8.36643 4.07071 15.0401 4.77587 16.3214V16.37L4.87313 16.5565C7.3974 20.9365 11.032 24.5728 15.41 27.0982V27.0982L15.7667 27.301C17.3877 28.1605 23.8314 31.4041 29.8537 30.9581C30.1418 30.9381 30.4134 30.8162 30.6198 30.6141C30.8263 30.412 30.9541 30.143 30.9803 29.8553V22.9545C31.0145 22.737 31.0041 22.5148 30.9496 22.3014C30.8952 22.0881 30.7979 21.8881 30.6636 21.7136C30.5294 21.539 30.361 21.3937 30.1688 21.2864C29.9766 21.1791 29.7646 21.1121 29.5457 21.0895Z" stroke="#F06A61" stroke-linecap="round" stroke-linejoin="round"/>
</svg>
