<svg width="32" height="32" viewBox="0 0 32 32" fill="none" xmlns="http://www.w3.org/2000/svg">
<path d="M16 1C18.9667 1 21.8668 1.87973 24.3335 3.52796C26.8003 5.17618 28.7229 7.51886 29.8582 10.2597C30.9935 13.0006 31.2905 16.0166 30.7118 18.9264C30.133 21.8361 28.7044 24.5088 26.6066 26.6066C24.5088 28.7044 21.8361 30.133 18.9264 30.7118C16.0166 31.2905 13.0006 30.9935 10.2597 29.8582C7.51886 28.7229 5.17618 26.8003 3.52796 24.3335C1.87973 21.8668 1 18.9667 1 16C1.00185 12.0223 2.58279 8.20808 5.39544 5.39544C8.20808 2.58279 12.0223 1.00185 16 1V1Z" stroke="#F06A61" stroke-linecap="round" stroke-linejoin="round"/>
<path d="M16 7.23718V16L24.0081 21.096" stroke="#3AA2C4" stroke-linecap="round" stroke-linejoin="round"/>
</svg>
